<svg width="24" height="24" viewBox="0 0 24 24" fill="none" xmlns="http://www.w3.org/2000/svg">
<g id="google">
<path id="Vector" d="M21.3498 11.1H12.1798V13.83H18.6898C18.3598 17.64 15.1898 19.27 12.1898 19.27C8.35979 19.27 4.99979 16.25 4.99979 12C4.99979 7.9 8.19979 4.73 12.1998 4.73C15.2898 4.73 17.0998 6.7 17.0998 6.7L18.9998 4.72C18.9998 4.72 16.5598 2 12.0998 2C6.41979 2 2.02979 6.8 2.02979 12C2.02979 17.05 6.15979 22 12.2498 22C17.5998 22 21.4998 18.33 21.4998 12.91C21.4998 11.76 21.3498 11.1 21.3498 11.1Z" fill="white"/>
</g>
</svg>
